<svg viewBox="389.088 545.283 16 16" fill="#28a745" xmlns="http://www.w3.org/2000/svg">
  <path fill-rule="evenodd" d="M 2 0 C 0.8954305052757263 2.02906120474947e-16 -1.3527075139492794e-16 0.8954305052757263 0 2 L 0 14 C 1.3527075139492794e-16 15.104569435119629 0.8954305052757263 16 2 16 L 14 16 C 15.104569435119629 16 16 15.104569435119629 16 14 L 16 2 C 16 0.8954305052757263 15.104569435119629 6.763537569746397e-17 14 0 L 2 0 Z M NaN NaN " stroke="none" stroke-width="1" stroke-linecap="butt" stroke-linejoin="miter" fill="#28a745" transform="matrix(1, 0, 0, 1, 389.088013, 545.28302)" class=""/>
  <path d="M 2.82440185546875 -0.7989501953125 C 2.812408447265625 -0.7989501953125 2.801422119140625 -0.7979736328125 2.7904052734375 -0.79595947265625 C 2.638397216796875 -0.76995849609375 2.572418212890625 -0.5899658203125 2.67041015625 -0.47198486328125 L 4.24139404296875 1.4140625 C 4.3214111328125 1.510009765625 4.468414306640625 1.510009765625 4.54840087890625 1.4140625 L 6.119415283203125 -0.47198486328125 C 6.12640380859375 -0.47998046875 6.1334228515625 -0.489990234375 6.139404296875 -0.49993896484375 C 6.216400146484375 -0.63299560546875 6.119415283203125 -0.7989501953125 5.966400146484375 -0.7989501953125 L 2.82440185546875 -0.7989501953125 Z M -6.0015869140625 0.7960205078125 C -5.989593505859375 0.79803466796875 -5.97760009765625 0.79901123046875 -5.966583251953125 0.79901123046875 L -2.8245849609375 0.79901123046875 C -2.67059326171875 0.79901123046875 -2.5745849609375 0.63201904296875 -2.651580810546875 0.4990234375 C -2.656585693359375 0.489013671875 -2.663604736328125 0.48004150390625 -2.67059326171875 0.47100830078125 L -4.242584228515625 -1.4139404296875 C -4.322601318359375 -1.510986328125 -4.4696044921875 -1.510986328125 -4.548583984375 -1.4139404296875 L -6.119598388671875 0.47100830078125 C -6.218597412109375 0.59002685546875 -6.151580810546875 0.77001953125 -6.0015869140625 0.7960205078125 Z M 4.493408203125 -1.6719970703125 C 4.599395751953125 -1.38897705078125 4.677398681640625 -1.09698486328125 4.728424072265625 -0.7989501953125 L 3.9154052734375 -0.7989501953125 C 3.534423828125 -2.65997314453125 1.898406982421875 -3.9959716796875 0.000396728515625 -3.9959716796875 C -1.2406005859375 -3.9959716796875 -2.349578857421875 -3.43096923828125 -3.08258056640625 -2.54296875 C -3.270599365234375 -2.29998779296875 -3.651580810546875 -2.3509521484375 -3.768585205078125 -2.635986328125 C -3.82659912109375 -2.77593994140625 -3.799591064453125 -2.93798828125 -3.698577880859375 -3.05096435546875 C -1.346588134765625 -5.89794921875 3.20440673828125 -5.1319580078125 4.493408203125 -1.6719970703125 Z M -4.494598388671875 1.67205810546875 C -4.599578857421875 1.3890380859375 -4.6785888671875 1.0970458984375 -4.72857666015625 0.79901123046875 L -3.916595458984375 0.79901123046875 C -3.299591064453125 3.81402587890625 0.35040283203125 5.030029296875 2.65240478515625 2.988037109375 C 2.806396484375 2.85003662109375 2.951416015625 2.7010498046875 3.0823974609375 2.54302978515625 C 3.270416259765625 2.29901123046875 3.650421142578125 2.35003662109375 3.768402099609375 2.634033203125 C 3.825408935546875 2.7750244140625 3.79840087890625 2.93701171875 3.698394775390625 3.051025390625 C 1.347412109375 5.89801025390625 -3.20458984375 5.13201904296875 -4.494598388671875 1.67205810546875 Z " fill="#FFFFFF" fill-rule="nonzero" stroke="none" stroke-width="1" stroke-linecap="butt" stroke-linejoin="miter" stroke-miterlimit="10" stroke-dasharray="" stroke-dashoffset="0" style="mix-blend-mode:normal; " transform="matrix(1, 0, 0, 1, 397.033997, 552.864014)" class="" fill-opacity="1"/>
</svg>
